<mxfile host="65bd71144e">
    <diagram id="-4ppu_Coy7lCNGfS8DDT" name="Page-1">
        <mxGraphModel dx="952" dy="434" grid="1" gridSize="10" guides="1" tooltips="1" connect="1" arrows="1" fold="1" page="1" pageScale="1" pageWidth="827" pageHeight="1169" math="0" shadow="0">
            <root>
                <mxCell id="0"/>
                <mxCell id="1" parent="0"/>
                <mxCell id="2" value="AbstractClass" style="swimlane;fontStyle=1;align=center;verticalAlign=top;childLayout=stackLayout;horizontal=1;startSize=26;horizontalStack=0;resizeParent=1;resizeParentMax=0;resizeLast=0;collapsible=1;marginBottom=0;" vertex="1" parent="1">
                    <mxGeometry x="70" y="80" width="160" height="90" as="geometry"/>
                </mxCell>
                <mxCell id="4" value="" style="line;strokeWidth=1;fillColor=none;align=left;verticalAlign=middle;spacingTop=-1;spacingLeft=3;spacingRight=3;rotatable=0;labelPosition=right;points=[];portConstraint=eastwest;strokeColor=inherit;" vertex="1" parent="2">
                    <mxGeometry y="26" width="160" height="8" as="geometry"/>
                </mxCell>
                <mxCell id="5" value="Method1&#10;Method2&#10;TemplateMethod&#10;" style="text;strokeColor=none;fillColor=none;align=left;verticalAlign=top;spacingLeft=4;spacingRight=4;overflow=hidden;rotatable=0;points=[[0,0.5],[1,0.5]];portConstraint=eastwest;" vertex="1" parent="2">
                    <mxGeometry y="34" width="160" height="56" as="geometry"/>
                </mxCell>
                <mxCell id="6" value="ConcreteClass" style="swimlane;fontStyle=1;align=center;verticalAlign=top;childLayout=stackLayout;horizontal=1;startSize=26;horizontalStack=0;resizeParent=1;resizeParentMax=0;resizeLast=0;collapsible=1;marginBottom=0;" vertex="1" parent="1">
                    <mxGeometry x="70" y="220" width="160" height="90" as="geometry"/>
                </mxCell>
                <mxCell id="9" value="" style="endArrow=open;endFill=1;endSize=12;html=1;entryX=0.5;entryY=1.054;entryDx=0;entryDy=0;entryPerimeter=0;" edge="1" parent="6" target="5">
                    <mxGeometry width="160" relative="1" as="geometry">
                        <mxPoint x="80" as="sourcePoint"/>
                        <mxPoint x="240" as="targetPoint"/>
                    </mxGeometry>
                </mxCell>
                <mxCell id="7" value="" style="line;strokeWidth=1;fillColor=none;align=left;verticalAlign=middle;spacingTop=-1;spacingLeft=3;spacingRight=3;rotatable=0;labelPosition=right;points=[];portConstraint=eastwest;strokeColor=inherit;" vertex="1" parent="6">
                    <mxGeometry y="26" width="160" height="8" as="geometry"/>
                </mxCell>
                <mxCell id="8" value="Method1&#10;Method2&#10;" style="text;strokeColor=none;fillColor=none;align=left;verticalAlign=top;spacingLeft=4;spacingRight=4;overflow=hidden;rotatable=0;points=[[0,0.5],[1,0.5]];portConstraint=eastwest;" vertex="1" parent="6">
                    <mxGeometry y="34" width="160" height="56" as="geometry"/>
                </mxCell>
            </root>
        </mxGraphModel>
    </diagram>
</mxfile>